<svg xmlns="http://www.w3.org/2000/svg" xmlns:xlink="http://www.w3.org/1999/xlink" width="500" zoomAndPan="magnify" viewBox="0 0 375 374.999991" height="500" preserveAspectRatio="xMidYMid meet" version="1.0"><path fill="#d9d9d9" d="M 344.847656 231.417969 L 343.046875 229.613281 C 340.828125 227.28125 331.230469 224.34375 328.164062 224.070312 C 326.554688 223.929688 324.027344 223.320312 322.363281 223.367188 C 321.121094 223.402344 321.066406 223.417969 319.667969 223.191406 L 308.789062 223.90625 C 307.820312 223.984375 308.214844 224.003906 307.464844 224.136719 C 307.007812 224.214844 306.527344 224.230469 306.082031 224.238281 L 303.59375 224.53125 C 301.042969 224.609375 299.410156 224.429688 298.402344 224.039062 C 298.292969 224 298.199219 223.957031 298.105469 223.910156 C 295.410156 222.578125 298.328125 219.3125 298.609375 215.480469 L 298.9375 211.242188 C 298.851562 206.347656 298.429688 201.527344 297.6875 196.796875 C 294.582031 176.960938 285.902344 158.765625 273.183594 144.027344 L 272.464844 142.289062 C 270.988281 137.902344 269.921875 132.695312 268.234375 128.148438 C 267.175781 125.277344 265.296875 122.207031 264.335938 119.453125 C 261.316406 110.847656 264.703125 110.640625 267.171875 108.554688 C 269.246094 106.808594 270.78125 100 271.039062 97.203125 L 270.945312 95.242188 C 270.867188 92.367188 270.300781 93.035156 268.496094 91.730469 C 267.101562 92.648438 265.734375 93.730469 264.871094 95.078125 C 264.554688 95.570312 264.441406 95.625 264.011719 96.117188 C 262.792969 97.515625 262.023438 100.109375 260.84375 101.109375 C 259.964844 99.230469 259.15625 96.878906 259.128906 94.824219 C 259.105469 93.148438 259.070312 93.367188 258.636719 91.496094 C 258.3125 90.105469 258.667969 89.953125 258.640625 88.628906 C 258.621094 87.476562 258.207031 86.472656 258.175781 85.308594 C 258.074219 81.453125 258.246094 77.652344 258.820312 73.902344 L 259.496094 65.609375 C 259.46875 65.050781 259.28125 64.429688 259.257812 63.828125 C 259.171875 61.707031 259.523438 62.113281 258.921875 59.371094 C 258.160156 55.890625 255.480469 53.78125 253.898438 57.539062 L 253.664062 58.386719 C 253.351562 61.621094 255.117188 65.460938 253.96875 68.328125 C 252.460938 72.09375 245.304688 67.554688 243.324219 65.953125 C 242.921875 65.625 242.824219 65.46875 242.480469 65.199219 L 240.257812 63.277344 C 237.726562 60.417969 234.808594 57.804688 234.125 53.695312 C 232.019531 41.128906 222.476562 40.320312 230.070312 56.871094 C 230.421875 57.640625 230.742188 58.632812 231.050781 59.445312 C 231.1875 59.8125 231.46875 60.515625 231.546875 60.871094 L 231.597656 61.851562 C 231.394531 63.824219 229.1875 64.03125 227.714844 63.546875 C 225.539062 62.832031 223.972656 59.851562 222.527344 58.199219 C 221.660156 57.207031 220.917969 55.53125 220.285156 54.253906 C 219.410156 52.488281 218.640625 51.738281 217.824219 50.246094 C 216.453125 47.726562 215.140625 44.332031 213.5 41.996094 C 211.417969 38.789062 208.96875 38.308594 208.886719 42.558594 C 208.847656 44.347656 209.3125 44.484375 209.769531 46.3125 C 210.933594 50.972656 214.238281 56.589844 215.738281 60.503906 C 216.332031 62.054688 216.652344 62.945312 217.359375 64.339844 C 218.273438 66.136719 217.363281 65.835938 216.421875 66.8125 C 214.097656 67.46875 211.222656 66.515625 208.550781 64.929688 C 206.015625 63.414062 203.652344 61.328125 202.117188 59.496094 C 199.152344 55.96875 199.601562 61.246094 199.527344 61.898438 C 199.304688 63.75 199.859375 64.855469 201.199219 66.148438 C 202.695312 67.585938 204.292969 68.394531 206.132812 69.449219 C 216.949219 75.640625 237.558594 74.699219 245.519531 79.882812 C 248.035156 81.519531 249.378906 84.417969 250.960938 86.753906 C 256.570312 95.042969 249.355469 98.679688 248.753906 102.953125 C 248.117188 107.511719 245.664062 106.363281 241.457031 107.945312 C 237.6875 109.363281 234.535156 110.367188 231.382812 112.15625 C 227.21875 114.515625 229.058594 112.851562 225.21875 116.003906 C 224.34375 116.730469 224.253906 116.46875 223.46875 117.351562 C 222.113281 118.882812 221.421875 119.160156 220.15625 120.363281 C 218.90625 121.554688 218.097656 121.988281 216.222656 122.855469 C 213.523438 124.109375 210.398438 126.210938 207.15625 127.523438 C 200.769531 130.101562 194.546875 130.265625 198.371094 134.125 L 200.375 136 C 201.359375 136.925781 203.488281 138.179688 204.285156 139.453125 C 205.65625 141.648438 206.175781 144.269531 210.980469 145.144531 L 213.921875 145.503906 C 215.59375 145.515625 219.746094 145.816406 221.054688 145.578125 C 222.136719 145.382812 222.855469 145.125 223.886719 145.121094 C 226.492188 145.109375 229.128906 144.542969 231.648438 145.035156 C 231.84375 145.074219 232.035156 145.121094 232.226562 145.167969 C 234.972656 145.902344 237.128906 148.007812 238.523438 150.9375 C 240.292969 154.648438 240.839844 159.679688 239.816406 164.910156 C 237.785156 175.289062 229.5625 186.433594 212.40625 189.535156 L 193.167969 191.257812 C 192.390625 191.285156 192.113281 191.386719 191.335938 191.417969 L 181.234375 191.214844 C 179.402344 191.0625 179.542969 191.464844 177.101562 191.03125 L 159.90625 188.847656 C 158.300781 188.542969 156.957031 188.023438 155.378906 187.792969 C 153.667969 187.542969 151.199219 187.1875 149.511719 187.476562 C 147.785156 187.765625 146.609375 187.765625 144.949219 188.449219 L 144.558594 188.636719 L 144.359375 188.726562 C 141.644531 189.839844 138.636719 190.507812 135.796875 190.863281 C 131.023438 191.453125 128.726562 191.652344 123.914062 189.253906 C 122.261719 188.429688 122.320312 187.828125 121.011719 186.757812 L 119.074219 184.777344 C 117.265625 182.714844 112.824219 177.085938 111.671875 174.789062 C 110.199219 171.847656 112.425781 164.765625 113.546875 161.78125 C 111.230469 161.128906 109.941406 162.5625 108.226562 163.71875 C 107.785156 164.015625 107.589844 164.089844 107.121094 164.433594 C 106.589844 164.820312 106.375 165.085938 105.917969 165.457031 C 102.101562 168.597656 98.628906 173.597656 99.285156 178.75 C 99.59375 181.183594 99.9375 183.488281 101.828125 185.699219 C 102.265625 186.214844 103.484375 187.359375 104.007812 187.808594 C 105.832031 189.355469 108.371094 189.960938 110.597656 191.246094 L 116.582031 194.964844 C 118.007812 196.292969 118.414062 196.871094 118.804688 198.722656 C 119.253906 200.855469 117.945312 201.984375 116.726562 203.453125 L 112.859375 209.105469 C 110.679688 213.382812 111.738281 216.132812 111.785156 219.074219 C 111.800781 219.914062 111.597656 219.976562 111.617188 220.816406 C 111.636719 221.773438 111.804688 221.390625 111.863281 222.375 C 111.929688 223.457031 111.507812 224.632812 111.5 225.636719 C 111.429688 231.703125 107.898438 241.691406 103.953125 246.191406 C 103.113281 247.15625 102.671875 248.1875 101.90625 249.039062 C 100.90625 250.160156 100.96875 249.628906 99.84375 251.316406 C 99.363281 252.035156 97.503906 253.722656 95.789062 255.222656 L 92.953125 257.664062 C 92.171875 258.34375 91.476562 258.773438 90.640625 259.390625 L 83.15625 264.433594 C 82.265625 264.960938 81.484375 265.339844 80.710938 265.871094 L 77.066406 267.816406 C 74.4375 269.226562 71.492188 270.558594 69.191406 272.519531 L 65.992188 275.972656 C 65.207031 277.074219 64.710938 277.089844 63.984375 278.902344 C 61.765625 284.449219 60.359375 289.109375 59.246094 293.945312 C 58.707031 296.28125 57.074219 299.101562 56.089844 300.890625 C 54.914062 303.03125 53.878906 305.390625 52.609375 307.398438 C 51.238281 309.5625 47.929688 313.851562 46 315.414062 C 45.535156 315.796875 45.835938 315.550781 45.335938 316.042969 L 44.84375 316.535156 L 43.523438 317.304688 C 43.203125 317.507812 43.328125 317.464844 42.984375 317.699219 C 40.910156 319.117188 38.011719 318.574219 36.152344 320.496094 C 33.175781 323.570312 26.460938 336.679688 35.777344 332.792969 C 38.21875 331.777344 40.34375 330.347656 42.730469 329.214844 C 45.558594 327.863281 48.757812 326.835938 51.449219 325.3125 C 51.988281 325.007812 52.234375 324.914062 52.804688 324.628906 L 53.570312 324.222656 L 57.097656 322.011719 C 57.984375 321.292969 58.820312 320.628906 59.40625 319.75 C 60.976562 317.402344 62.394531 315.488281 63.398438 312.789062 C 64.503906 309.816406 71.527344 295.6875 72.664062 294.34375 C 73.144531 293.773438 73.230469 293.804688 73.742188 293.050781 C 74.15625 292.441406 74.296875 292.109375 74.699219 291.480469 C 75.972656 289.476562 77.890625 287.878906 79.539062 286.398438 L 92.734375 277.125 L 92.921875 277.023438 C 96.183594 275.195312 99.738281 273.78125 103.28125 272.542969 L 104.964844 272.070312 L 107.71875 271.300781 C 108.664062 271.007812 108.132812 271.078125 109.21875 270.921875 L 114.191406 269.804688 C 114.929688 269.707031 114.960938 269.871094 115.816406 269.707031 L 142.492188 262.859375 C 144.46875 262.125 146.289062 260.828125 147.921875 259.589844 C 148.496094 259.148438 148.484375 259.285156 149.167969 258.660156 L 150.503906 257.402344 C 154.070312 254.601562 156.457031 250.5 160.273438 247.945312 C 165.636719 244.347656 168.152344 244.339844 174.191406 243.957031 L 197.457031 244.808594 C 200.300781 245.417969 202.242188 245.320312 205.105469 245.914062 C 205.199219 245.933594 205.292969 245.953125 205.386719 245.964844 C 206.585938 246.164062 207.28125 245.957031 208.53125 246.113281 C 209.921875 246.285156 211.296875 246.738281 212.449219 246.867188 C 213.984375 247.039062 214.457031 246.8125 216.183594 247.21875 C 218.816406 247.839844 224.414062 248.3125 227.3125 248.636719 L 235.640625 249.585938 C 235.417969 249.972656 235.167969 250.378906 234.851562 250.9375 C 234.289062 251.914062 233.460938 253.539062 233.074219 254.375 C 232.398438 255.832031 231.753906 257.027344 231.257812 258.257812 C 230.273438 260.699219 227.34375 266.515625 225.375 267.867188 C 222.644531 269.738281 219.523438 270.636719 216.519531 271.988281 C 214.425781 272.933594 212.699219 273.96875 212.132812 276.710938 C 211.742188 278.59375 212.515625 282.003906 214.503906 282.800781 C 215.304688 283.121094 217.144531 282.863281 217.792969 282.671875 L 217.996094 282.597656 L 218.195312 282.515625 L 224.390625 280.402344 L 224.585938 280.308594 L 227 279.332031 C 231.125 277.457031 235.089844 275.367188 238.878906 272.9375 L 239.632812 272.507812 C 240.871094 271.632812 242.25 269.5 242.910156 268.171875 C 244.597656 264.78125 244.464844 262.71875 245.078125 260.09375 C 245.8125 256.957031 246.773438 253.472656 248.515625 250.582031 L 259.785156 250.878906 C 262.507812 250.75 265.578125 250.964844 268.257812 250.644531 C 269.101562 250.542969 269.246094 250.613281 270.191406 250.699219 L 278.84375 250.339844 C 281.03125 250.078125 283.171875 250.101562 285.390625 249.539062 L 287.542969 249.054688 L 288.636719 248.8125 C 289.210938 248.675781 288.976562 248.78125 289.519531 248.667969 L 293.140625 247.921875 L 296.714844 247.191406 C 297.433594 247.117188 297.542969 247.210938 298.34375 247.097656 C 299.25 246.964844 299.152344 246.941406 300.15625 246.890625 C 301.476562 246.828125 302.234375 246.457031 303.550781 246.496094 C 304.765625 246.535156 305.480469 246.113281 306.691406 246.0625 C 311.097656 245.867188 315.429688 244.074219 319.773438 243.820312 C 322.847656 243.644531 320.222656 246.761719 318.890625 250.371094 C 318.222656 252.183594 317.867188 252.59375 317.011719 254.097656 C 316.449219 255.074219 315.621094 256.695312 315.230469 257.535156 C 314.558594 258.988281 313.914062 260.1875 313.417969 261.414062 C 312.433594 263.855469 309.503906 269.675781 307.535156 271.027344 C 304.804688 272.894531 301.683594 273.792969 298.679688 275.148438 C 296.582031 276.089844 294.859375 277.125 294.292969 279.867188 C 293.902344 281.753906 294.675781 285.164062 296.667969 285.960938 C 297.464844 286.28125 299.304688 286.023438 299.953125 285.828125 L 300.15625 285.753906 L 300.359375 285.671875 L 306.550781 283.5625 L 306.746094 283.46875 L 309.160156 282.492188 C 313.285156 280.613281 317.25 278.523438 321.039062 276.09375 L 321.792969 275.667969 C 323.03125 274.789062 324.410156 272.660156 325.070312 271.328125 C 326.757812 267.9375 326.625 265.875 327.238281 263.253906 C 328.390625 258.328125 330.085938 252.539062 334.492188 249.566406 L 342.550781 244.21875 C 347.023438 241.050781 348.515625 235.695312 344.847656 231.417969 " fill-opacity="1" fill-rule="evenodd"/><path fill="#d9d9d9" d="M 211.09375 251.519531 C 209.75 251.351562 209.046875 251.609375 207.667969 251.324219 C 204.804688 250.730469 202.863281 250.828125 200.015625 250.214844 L 176.753906 249.371094 C 170.714844 249.75 168.199219 249.757812 162.835938 253.355469 C 159.019531 255.910156 156.632812 260.011719 153.066406 262.8125 L 151.730469 264.070312 C 151.050781 264.691406 151.058594 264.558594 150.484375 264.996094 C 148.851562 266.238281 147.03125 267.535156 145.058594 268.269531 L 124.179688 273.625 L 123.988281 273.835938 C 123.203125 274.9375 122.707031 274.953125 121.980469 276.761719 C 119.761719 282.3125 118.355469 286.972656 117.242188 291.808594 C 116.703125 294.140625 115.070312 296.964844 114.085938 298.75 C 112.90625 300.894531 111.875 303.253906 110.601562 305.257812 C 109.230469 307.425781 105.925781 311.714844 103.996094 313.277344 C 103.53125 313.660156 103.828125 313.410156 103.328125 313.90625 L 102.835938 314.398438 L 101.519531 315.167969 C 101.199219 315.371094 101.324219 315.328125 100.980469 315.5625 C 98.90625 316.980469 96.007812 316.4375 94.148438 318.359375 C 91.171875 321.4375 84.453125 334.542969 93.773438 330.660156 C 96.214844 329.640625 98.339844 328.214844 100.726562 327.074219 C 103.554688 325.726562 106.753906 324.695312 109.445312 323.175781 C 109.984375 322.871094 110.230469 322.777344 110.800781 322.492188 L 111.566406 322.082031 L 115.09375 319.878906 C 115.980469 319.15625 116.816406 318.492188 117.402344 317.613281 C 118.972656 315.269531 120.390625 313.351562 121.394531 310.652344 C 122.5 307.679688 129.523438 293.550781 130.65625 292.207031 C 131.140625 291.636719 131.226562 291.667969 131.738281 290.914062 C 132.152344 290.304688 132.292969 289.972656 132.695312 289.34375 C 133.964844 287.339844 135.886719 285.742188 137.535156 284.261719 L 150.726562 274.988281 L 150.914062 274.886719 C 154.179688 273.054688 157.734375 271.644531 161.273438 270.40625 L 162.960938 269.933594 L 165.714844 269.160156 C 166.660156 268.871094 166.128906 268.941406 167.210938 268.785156 L 172.183594 267.667969 C 172.925781 267.570312 172.957031 267.738281 173.8125 267.574219 L 200.488281 260.71875 C 202.460938 259.988281 204.285156 258.691406 205.917969 257.449219 C 206.492188 257.015625 206.480469 257.148438 207.164062 256.523438 L 208.5 255.265625 C 209.84375 254.210938 211.015625 252.972656 212.167969 251.699219 L 211.09375 251.519531 " fill-opacity="1" fill-rule="evenodd"/></svg>